# xmcd CD database file
#
# Track frame offsets:
#	150
#	20962
#	39956
#	58937
#	76888
#	99304
#	116736
#	132697
#	155988
#	173160
#	192544
#	209244
#	224470
#	241993
#	265325
#	283457
#	298630
#	318193
#	338588
#
# Disc length: 4803 seconds
#
# Revision: 0
# Processed by: cddbd v1.4PL0 Copyright (c) Steve Scherf et al.
# Submitted via: CDex 1.50
#
DISCID=3812c113
DTITLE=Duran Duran - DeLuxe Collection
DYEAR=2001
DGENRE=New Age
TTITLE0=Ordinary World
TTITLE1=Wild Boys
TTITLE2=Come Undone
TTITLE3=Notorioãs
TTITLE4=Electric Barbarella
TTITLE5=Planet Earth
TTITLE6=A view to a kill
TTITLE7=New religion
TTITLE8=Serious
TTITLE9=Union of the snake
TTITLE10=Save a prayer
TTITLE11=Girls on film
TTITLE12=Lava lamp
TTITLE13=Hallucinating evils
TTITLE14=Michael you've got a lot to answer
TTITLE15=Hungry like the wolf
TTITLE16=Skin trade
TTITLE17=Love voodoo
TTITLE18=Pop trash movie
EXTD=YEAR: 2001
EXTT0=
EXTT1=
EXTT2=
EXTT3=
EXTT4=
EXTT5=
EXTT6=
EXTT7=
EXTT8=
EXTT9=
EXTT10=
EXTT11=
EXTT12=
EXTT13=
EXTT14=
EXTT15=
EXTT16=
EXTT17=
EXTT18=
PLAYORDER=
